<svg id="Layer_1" data-name="Layer 1" xmlns="http://www.w3.org/2000/svg" xmlns:xlink="http://www.w3.org/1999/xlink" viewBox="0 0 249.33 271.63"><defs><style>.cls-1{fill:#fff;}.cls-2{fill:url(#linear-gradient);}.cls-3{fill:url(#linear-gradient-2);}.cls-4{fill:url(#linear-gradient-3);}.cls-5{fill:url(#linear-gradient-4);}.cls-6{fill:url(#linear-gradient-5);}.cls-7{fill:url(#linear-gradient-6);}.cls-8{fill:url(#linear-gradient-7);}.cls-9{fill:url(#linear-gradient-8);}</style><linearGradient id="linear-gradient" x1="174.6" y1="166.85" x2="155.23" y2="195.73" gradientTransform="matrix(1, 0, 0, -1, 0, 270.67)" gradientUnits="userSpaceOnUse"><stop offset="0" stop-color="#7962ab"/><stop offset="1" stop-color="#4c3594"/></linearGradient><linearGradient id="linear-gradient-2" x1="174.6" y1="77.19" x2="155.23" y2="106.08" xlink:href="#linear-gradient"/><linearGradient id="linear-gradient-3" x1="129.86" y1="30.02" x2="5.71" y2="215.17" xlink:href="#linear-gradient"/><linearGradient id="linear-gradient-4" x1="230.96" y1="70.78" x2="95.25" y2="273.16" xlink:href="#linear-gradient"/><linearGradient id="linear-gradient-5" x1="184.3" y1="-50.91" x2="49.04" y2="150.81" xlink:href="#linear-gradient"/><linearGradient id="linear-gradient-6" x1="271.24" y1="5.68" x2="141.7" y2="198.86" xlink:href="#linear-gradient"/><linearGradient id="linear-gradient-7" x1="100.59" y1="154.82" x2="81.23" y2="183.7" xlink:href="#linear-gradient"/><linearGradient id="linear-gradient-8" x1="100.6" y1="67.57" x2="81.23" y2="96.45" xlink:href="#linear-gradient"/></defs><title>Artboard 1</title><path class="cls-1" d="M228.89,57.5l-11.44-6.61h0l-3.4-2-17.34-10h0L142.82,7.81c-9.66-5.57-25.48-5.57-35.14,0L82.3,22.45h0l-3.94,2.27h0L63.09,33.55,21.61,57.5C11.95,63.08,4,76.78,4,87.94v99.39c0,11.16,7.91,24.85,17.57,30.44l7.52,4.35h0l14.17,8.18,64.38,37.17c9.66,5.57,25.48,5.57,35.14,0l7.94-4.59h0l9.13-5.27h0l18.54-10.73,50.44-29.13c9.66-5.57,17.57-19.27,17.57-30.44V87.91C246.46,76.78,238.55,63.09,228.89,57.5Z"/><path class="cls-2" d="M172.57,86.2A9.78,9.78,0,1,0,162.78,96,9.79,9.79,0,0,0,172.57,86.2Z"/><path class="cls-3" d="M153,175.85a9.78,9.78,0,1,0,9.78-9.78A9.79,9.79,0,0,0,153,175.85Z"/><path class="cls-4" d="M82.05,163.23V120.47a23.26,23.26,0,0,1,0-44.51V51.84L70,45.08,33.07,66.38c-8.58,5-15.62,17.15-15.62,27.06v88.39c0,9.93,7,22.09,15.62,27.06l6.7,3.87L66.47,192a22.85,22.85,0,0,1-1-6.56A23.28,23.28,0,0,1,82.05,163.23Z"/><path class="cls-5" d="M95.52,43.94V76A23.26,23.26,0,0,1,109,109.68L152.48,155a24,24,0,0,1,3.56-1.41V108.46a23.25,23.25,0,0,1,6.74-45.51,23,23,0,0,1,9.7,2.13l21.28-12.33L140.86,22.18c-8.58-5-22.65-5-31.25,0L83.52,37.24Z"/><path class="cls-6" d="M156,198.1a23.24,23.24,0,0,1-13.38-33.88L99.26,119a23.61,23.61,0,0,1-3.74,1.51v42.76a23.25,23.25,0,1,1-21.64,40.11L52.35,220l57.28,33c8.58,5,22.65,5,31.25,0l15.18-8.77V198.1Z"/><path class="cls-7" d="M217.41,66.38l-10.18-5.87-24.3,14.09a23.26,23.26,0,0,1-13.4,33.86v45.15a23.26,23.26,0,0,1,0,44.51v38.43l47.91-27.66c8.58-5,15.62-17.15,15.62-27.06V93.44C233,83.53,226,71.35,217.41,66.38Z"/><path class="cls-8" d="M98.56,98.22A9.78,9.78,0,1,0,88.77,108,9.79,9.79,0,0,0,98.56,98.22Z"/><path class="cls-9" d="M88.77,195.25A9.78,9.78,0,1,0,79,185.46,9.79,9.79,0,0,0,88.77,195.25Z"/></svg>